<mxfile host="app.diagrams.net" modified="2023-09-19T06:12:27.283Z" agent="Mozilla/5.0 (Windows NT 10.0; Win64; x64; rv:109.0) Gecko/20100101 Firefox/117.0" etag="-iXHCmjW0UzflLKm0oG3" version="21.7.5" type="github" pages="2">
  <diagram name="Page-1" id="u_JC-0qjYDzJXMqy9y9q">
    <mxGraphModel dx="1257" dy="607" grid="1" gridSize="10" guides="1" tooltips="1" connect="1" arrows="1" fold="1" page="1" pageScale="1" pageWidth="100000" pageHeight="100000" math="0" shadow="0">
      <root>
        <mxCell id="0" />
        <mxCell id="1" parent="0" />
        <mxCell id="B60rOpIpmTvG-FKL7r_q-1" value="" style="ellipse;whiteSpace=wrap;html=1;aspect=fixed;" vertex="1" parent="1">
          <mxGeometry x="1470" y="120" width="80" height="80" as="geometry" />
        </mxCell>
        <mxCell id="B60rOpIpmTvG-FKL7r_q-3" value="Start" style="ellipse;whiteSpace=wrap;html=1;aspect=fixed;" vertex="1" parent="1">
          <mxGeometry x="3330" y="90" width="80" height="80" as="geometry" />
        </mxCell>
        <mxCell id="B60rOpIpmTvG-FKL7r_q-4" value="Pembuatan Akun oleh Ass. HO approved by Mgr. HO" style="rounded=0;whiteSpace=wrap;html=1;" vertex="1" parent="1">
          <mxGeometry x="3310" y="230" width="120" height="60" as="geometry" />
        </mxCell>
        <mxCell id="B60rOpIpmTvG-FKL7r_q-5" value="Penerimaan Bukti Transaksi" style="rounded=0;whiteSpace=wrap;html=1;" vertex="1" parent="1">
          <mxGeometry x="3310" y="350" width="120" height="60" as="geometry" />
        </mxCell>
        <mxCell id="B60rOpIpmTvG-FKL7r_q-6" value="Pembuatan Jurnal Transaksi" style="rounded=0;whiteSpace=wrap;html=1;" vertex="1" parent="1">
          <mxGeometry x="3310" y="470" width="120" height="60" as="geometry" />
        </mxCell>
        <mxCell id="B60rOpIpmTvG-FKL7r_q-7" value="Pembuatan Neraca Saldo" style="rounded=0;whiteSpace=wrap;html=1;" vertex="1" parent="1">
          <mxGeometry x="3310" y="590" width="120" height="60" as="geometry" />
        </mxCell>
        <mxCell id="B60rOpIpmTvG-FKL7r_q-8" value="Pembuatan Laporan Keuangan" style="rounded=0;whiteSpace=wrap;html=1;" vertex="1" parent="1">
          <mxGeometry x="3310" y="710" width="120" height="60" as="geometry" />
        </mxCell>
        <mxCell id="B60rOpIpmTvG-FKL7r_q-9" value="" style="endArrow=classic;html=1;rounded=0;exitX=0.5;exitY=1;exitDx=0;exitDy=0;entryX=0.5;entryY=0;entryDx=0;entryDy=0;" edge="1" parent="1" source="B60rOpIpmTvG-FKL7r_q-3" target="B60rOpIpmTvG-FKL7r_q-4">
          <mxGeometry width="50" height="50" relative="1" as="geometry">
            <mxPoint x="3420" y="190" as="sourcePoint" />
            <mxPoint x="3470" y="140" as="targetPoint" />
          </mxGeometry>
        </mxCell>
        <mxCell id="B60rOpIpmTvG-FKL7r_q-10" value="" style="endArrow=classic;html=1;rounded=0;exitX=0.5;exitY=1;exitDx=0;exitDy=0;entryX=0.5;entryY=0;entryDx=0;entryDy=0;" edge="1" parent="1" source="B60rOpIpmTvG-FKL7r_q-4" target="B60rOpIpmTvG-FKL7r_q-5">
          <mxGeometry width="50" height="50" relative="1" as="geometry">
            <mxPoint x="3470" y="310" as="sourcePoint" />
            <mxPoint x="3520" y="260" as="targetPoint" />
          </mxGeometry>
        </mxCell>
        <mxCell id="B60rOpIpmTvG-FKL7r_q-11" value="" style="endArrow=classic;html=1;rounded=0;exitX=0.5;exitY=1;exitDx=0;exitDy=0;entryX=0.5;entryY=0;entryDx=0;entryDy=0;" edge="1" parent="1" source="B60rOpIpmTvG-FKL7r_q-5" target="B60rOpIpmTvG-FKL7r_q-6">
          <mxGeometry width="50" height="50" relative="1" as="geometry">
            <mxPoint x="3530" y="430" as="sourcePoint" />
            <mxPoint x="3580" y="380" as="targetPoint" />
          </mxGeometry>
        </mxCell>
        <mxCell id="B60rOpIpmTvG-FKL7r_q-13" value="" style="endArrow=classic;html=1;rounded=0;exitX=0.5;exitY=1;exitDx=0;exitDy=0;entryX=0.5;entryY=0;entryDx=0;entryDy=0;" edge="1" parent="1" source="B60rOpIpmTvG-FKL7r_q-6" target="B60rOpIpmTvG-FKL7r_q-7">
          <mxGeometry width="50" height="50" relative="1" as="geometry">
            <mxPoint x="3460" y="550" as="sourcePoint" />
            <mxPoint x="3510" y="500" as="targetPoint" />
          </mxGeometry>
        </mxCell>
        <mxCell id="B60rOpIpmTvG-FKL7r_q-14" value="" style="endArrow=classic;html=1;rounded=0;exitX=0.5;exitY=1;exitDx=0;exitDy=0;entryX=0.5;entryY=0;entryDx=0;entryDy=0;" edge="1" parent="1" source="B60rOpIpmTvG-FKL7r_q-7" target="B60rOpIpmTvG-FKL7r_q-8">
          <mxGeometry width="50" height="50" relative="1" as="geometry">
            <mxPoint x="3550" y="650" as="sourcePoint" />
            <mxPoint x="3600" y="600" as="targetPoint" />
          </mxGeometry>
        </mxCell>
        <mxCell id="B60rOpIpmTvG-FKL7r_q-15" value="End" style="ellipse;whiteSpace=wrap;html=1;aspect=fixed;" vertex="1" parent="1">
          <mxGeometry x="3330" y="830" width="80" height="80" as="geometry" />
        </mxCell>
        <mxCell id="B60rOpIpmTvG-FKL7r_q-16" value="" style="endArrow=classic;html=1;rounded=0;exitX=0.5;exitY=1;exitDx=0;exitDy=0;entryX=0.5;entryY=0;entryDx=0;entryDy=0;" edge="1" parent="1" source="B60rOpIpmTvG-FKL7r_q-8" target="B60rOpIpmTvG-FKL7r_q-15">
          <mxGeometry width="50" height="50" relative="1" as="geometry">
            <mxPoint x="3490" y="810" as="sourcePoint" />
            <mxPoint x="3540" y="760" as="targetPoint" />
          </mxGeometry>
        </mxCell>
        <mxCell id="B60rOpIpmTvG-FKL7r_q-17" value="Start" style="ellipse;whiteSpace=wrap;html=1;aspect=fixed;" vertex="1" parent="1">
          <mxGeometry x="4160" y="140" width="80" height="80" as="geometry" />
        </mxCell>
        <mxCell id="B60rOpIpmTvG-FKL7r_q-21" value="" style="edgeStyle=orthogonalEdgeStyle;rounded=0;orthogonalLoop=1;jettySize=auto;html=1;" edge="1" parent="1" source="B60rOpIpmTvG-FKL7r_q-18" target="B60rOpIpmTvG-FKL7r_q-20">
          <mxGeometry relative="1" as="geometry" />
        </mxCell>
        <mxCell id="B60rOpIpmTvG-FKL7r_q-18" value="Pengiriman Bukti Transaksi" style="whiteSpace=wrap;html=1;aspect=fixed;" vertex="1" parent="1">
          <mxGeometry x="4145" y="270" width="110" height="110" as="geometry" />
        </mxCell>
        <mxCell id="B60rOpIpmTvG-FKL7r_q-19" value="" style="endArrow=classic;html=1;rounded=0;exitX=0.5;exitY=1;exitDx=0;exitDy=0;entryX=0.5;entryY=0;entryDx=0;entryDy=0;" edge="1" parent="1" source="B60rOpIpmTvG-FKL7r_q-17" target="B60rOpIpmTvG-FKL7r_q-18">
          <mxGeometry width="50" height="50" relative="1" as="geometry">
            <mxPoint x="4310" y="230" as="sourcePoint" />
            <mxPoint x="4360" y="180" as="targetPoint" />
          </mxGeometry>
        </mxCell>
        <mxCell id="B60rOpIpmTvG-FKL7r_q-23" value="" style="edgeStyle=orthogonalEdgeStyle;rounded=0;orthogonalLoop=1;jettySize=auto;html=1;" edge="1" parent="1" source="B60rOpIpmTvG-FKL7r_q-20" target="B60rOpIpmTvG-FKL7r_q-22">
          <mxGeometry relative="1" as="geometry" />
        </mxCell>
        <mxCell id="B60rOpIpmTvG-FKL7r_q-20" value="Penerimaan Bukti Transaksi" style="whiteSpace=wrap;html=1;" vertex="1" parent="1">
          <mxGeometry x="4140" y="450" width="120" height="60" as="geometry" />
        </mxCell>
        <mxCell id="B60rOpIpmTvG-FKL7r_q-25" value="" style="edgeStyle=orthogonalEdgeStyle;rounded=0;orthogonalLoop=1;jettySize=auto;html=1;" edge="1" parent="1" source="B60rOpIpmTvG-FKL7r_q-22" target="B60rOpIpmTvG-FKL7r_q-24">
          <mxGeometry relative="1" as="geometry" />
        </mxCell>
        <mxCell id="B60rOpIpmTvG-FKL7r_q-22" value="Pembuatan Jurnal Transaksi" style="whiteSpace=wrap;html=1;" vertex="1" parent="1">
          <mxGeometry x="4140" y="590" width="120" height="60" as="geometry" />
        </mxCell>
        <mxCell id="B60rOpIpmTvG-FKL7r_q-27" value="" style="edgeStyle=orthogonalEdgeStyle;rounded=0;orthogonalLoop=1;jettySize=auto;html=1;" edge="1" parent="1" source="B60rOpIpmTvG-FKL7r_q-24" target="B60rOpIpmTvG-FKL7r_q-26">
          <mxGeometry relative="1" as="geometry" />
        </mxCell>
        <mxCell id="B60rOpIpmTvG-FKL7r_q-24" value="Verivikasi Jurnal oleh SPV" style="whiteSpace=wrap;html=1;" vertex="1" parent="1">
          <mxGeometry x="4140" y="730" width="120" height="60" as="geometry" />
        </mxCell>
        <mxCell id="B60rOpIpmTvG-FKL7r_q-29" value="" style="edgeStyle=orthogonalEdgeStyle;rounded=0;orthogonalLoop=1;jettySize=auto;html=1;" edge="1" parent="1" source="B60rOpIpmTvG-FKL7r_q-26" target="B60rOpIpmTvG-FKL7r_q-28">
          <mxGeometry relative="1" as="geometry" />
        </mxCell>
        <mxCell id="B60rOpIpmTvG-FKL7r_q-26" value="Sesuai" style="rhombus;whiteSpace=wrap;html=1;" vertex="1" parent="1">
          <mxGeometry x="4160" y="860" width="80" height="80" as="geometry" />
        </mxCell>
        <mxCell id="B60rOpIpmTvG-FKL7r_q-31" value="" style="edgeStyle=orthogonalEdgeStyle;rounded=0;orthogonalLoop=1;jettySize=auto;html=1;" edge="1" parent="1" source="B60rOpIpmTvG-FKL7r_q-28" target="B60rOpIpmTvG-FKL7r_q-30">
          <mxGeometry relative="1" as="geometry" />
        </mxCell>
        <mxCell id="B60rOpIpmTvG-FKL7r_q-28" value="Verifikasi isi Jurnal Transaksi Oleh Ass. Mgr." style="whiteSpace=wrap;html=1;" vertex="1" parent="1">
          <mxGeometry x="4140" y="1030" width="120" height="60" as="geometry" />
        </mxCell>
        <mxCell id="B60rOpIpmTvG-FKL7r_q-42" value="" style="edgeStyle=orthogonalEdgeStyle;rounded=0;orthogonalLoop=1;jettySize=auto;html=1;" edge="1" parent="1" source="B60rOpIpmTvG-FKL7r_q-30" target="B60rOpIpmTvG-FKL7r_q-41">
          <mxGeometry relative="1" as="geometry" />
        </mxCell>
        <mxCell id="B60rOpIpmTvG-FKL7r_q-30" value="Sesuai" style="rhombus;whiteSpace=wrap;html=1;" vertex="1" parent="1">
          <mxGeometry x="4160" y="1160" width="80" height="80" as="geometry" />
        </mxCell>
        <mxCell id="B60rOpIpmTvG-FKL7r_q-33" value="Y" style="text;html=1;align=center;verticalAlign=middle;resizable=0;points=[];autosize=1;strokeColor=none;fillColor=none;" vertex="1" parent="1">
          <mxGeometry x="4205" y="958" width="30" height="30" as="geometry" />
        </mxCell>
        <mxCell id="B60rOpIpmTvG-FKL7r_q-34" value="&lt;div&gt;Y&lt;/div&gt;" style="text;html=1;align=center;verticalAlign=middle;resizable=0;points=[];autosize=1;strokeColor=none;fillColor=none;" vertex="1" parent="1">
          <mxGeometry x="4205" y="1108" width="30" height="30" as="geometry" />
        </mxCell>
        <mxCell id="B60rOpIpmTvG-FKL7r_q-35" value="" style="endArrow=classic;html=1;rounded=0;exitX=0;exitY=0.5;exitDx=0;exitDy=0;entryX=0;entryY=0.5;entryDx=0;entryDy=0;" edge="1" parent="1" source="B60rOpIpmTvG-FKL7r_q-26" target="B60rOpIpmTvG-FKL7r_q-22">
          <mxGeometry width="50" height="50" relative="1" as="geometry">
            <mxPoint x="3990" y="850" as="sourcePoint" />
            <mxPoint x="4040" y="800" as="targetPoint" />
            <Array as="points">
              <mxPoint x="4030" y="900" />
              <mxPoint x="4030" y="620" />
            </Array>
          </mxGeometry>
        </mxCell>
        <mxCell id="B60rOpIpmTvG-FKL7r_q-36" value="" style="endArrow=none;html=1;rounded=0;entryX=0;entryY=0.5;entryDx=0;entryDy=0;" edge="1" parent="1" target="B60rOpIpmTvG-FKL7r_q-30">
          <mxGeometry width="50" height="50" relative="1" as="geometry">
            <mxPoint x="4030" y="900" as="sourcePoint" />
            <mxPoint x="4060" y="1180" as="targetPoint" />
            <Array as="points">
              <mxPoint x="4030" y="1200" />
            </Array>
          </mxGeometry>
        </mxCell>
        <mxCell id="B60rOpIpmTvG-FKL7r_q-37" value="T" style="text;html=1;align=center;verticalAlign=middle;resizable=0;points=[];autosize=1;strokeColor=none;fillColor=none;" vertex="1" parent="1">
          <mxGeometry x="4090" y="860" width="30" height="30" as="geometry" />
        </mxCell>
        <mxCell id="B60rOpIpmTvG-FKL7r_q-39" value="T" style="text;html=1;align=center;verticalAlign=middle;resizable=0;points=[];autosize=1;strokeColor=none;fillColor=none;" vertex="1" parent="1">
          <mxGeometry x="4090" y="1160" width="30" height="30" as="geometry" />
        </mxCell>
        <mxCell id="B60rOpIpmTvG-FKL7r_q-44" value="" style="edgeStyle=orthogonalEdgeStyle;rounded=0;orthogonalLoop=1;jettySize=auto;html=1;" edge="1" parent="1" source="B60rOpIpmTvG-FKL7r_q-41" target="B60rOpIpmTvG-FKL7r_q-43">
          <mxGeometry relative="1" as="geometry" />
        </mxCell>
        <mxCell id="B60rOpIpmTvG-FKL7r_q-41" value="&lt;div&gt;Pembuatan Neraca Saldo&lt;/div&gt;" style="whiteSpace=wrap;html=1;" vertex="1" parent="1">
          <mxGeometry x="4140" y="1330" width="120" height="60" as="geometry" />
        </mxCell>
        <mxCell id="B60rOpIpmTvG-FKL7r_q-46" value="" style="edgeStyle=orthogonalEdgeStyle;rounded=0;orthogonalLoop=1;jettySize=auto;html=1;" edge="1" parent="1" source="B60rOpIpmTvG-FKL7r_q-43" target="B60rOpIpmTvG-FKL7r_q-45">
          <mxGeometry relative="1" as="geometry" />
        </mxCell>
        <mxCell id="B60rOpIpmTvG-FKL7r_q-43" value="Pembukuan Harga Produk Produksi, Penjualan dan Perincian Neraca" style="whiteSpace=wrap;html=1;" vertex="1" parent="1">
          <mxGeometry x="4140" y="1470" width="120" height="60" as="geometry" />
        </mxCell>
        <mxCell id="B60rOpIpmTvG-FKL7r_q-45" value="Pembuatana Laporan Keuangan" style="whiteSpace=wrap;html=1;" vertex="1" parent="1">
          <mxGeometry x="4140" y="1610" width="120" height="60" as="geometry" />
        </mxCell>
        <mxCell id="B60rOpIpmTvG-FKL7r_q-47" value="&lt;div&gt;End&lt;br&gt;&lt;/div&gt;" style="ellipse;whiteSpace=wrap;html=1;aspect=fixed;" vertex="1" parent="1">
          <mxGeometry x="4160" y="1750" width="80" height="80" as="geometry" />
        </mxCell>
        <mxCell id="B60rOpIpmTvG-FKL7r_q-48" value="" style="endArrow=classic;html=1;rounded=0;exitX=0.5;exitY=1;exitDx=0;exitDy=0;entryX=0.5;entryY=0;entryDx=0;entryDy=0;" edge="1" parent="1" source="B60rOpIpmTvG-FKL7r_q-45" target="B60rOpIpmTvG-FKL7r_q-47">
          <mxGeometry width="50" height="50" relative="1" as="geometry">
            <mxPoint x="4320" y="1710" as="sourcePoint" />
            <mxPoint x="4370" y="1660" as="targetPoint" />
          </mxGeometry>
        </mxCell>
      </root>
    </mxGraphModel>
  </diagram>
  <diagram id="nH4Wx3J8gD-EYQrA_zln" name="Page-2">
    <mxGraphModel dx="1354" dy="654" grid="1" gridSize="10" guides="1" tooltips="1" connect="1" arrows="1" fold="1" page="1" pageScale="1" pageWidth="100000" pageHeight="100000" math="0" shadow="0">
      <root>
        <mxCell id="0" />
        <mxCell id="1" parent="0" />
        <mxCell id="G8sGtjTKEq9AV-NC6YxH-3" value="" style="edgeStyle=orthogonalEdgeStyle;rounded=0;orthogonalLoop=1;jettySize=auto;html=1;" edge="1" parent="1" source="G8sGtjTKEq9AV-NC6YxH-1" target="G8sGtjTKEq9AV-NC6YxH-2">
          <mxGeometry relative="1" as="geometry">
            <Array as="points">
              <mxPoint x="440" y="140" />
              <mxPoint x="230" y="140" />
            </Array>
          </mxGeometry>
        </mxCell>
        <mxCell id="G8sGtjTKEq9AV-NC6YxH-5" value="" style="edgeStyle=orthogonalEdgeStyle;rounded=0;orthogonalLoop=1;jettySize=auto;html=1;" edge="1" parent="1" source="G8sGtjTKEq9AV-NC6YxH-1" target="G8sGtjTKEq9AV-NC6YxH-4">
          <mxGeometry relative="1" as="geometry" />
        </mxCell>
        <mxCell id="G8sGtjTKEq9AV-NC6YxH-7" value="" style="edgeStyle=orthogonalEdgeStyle;rounded=0;orthogonalLoop=1;jettySize=auto;html=1;" edge="1" parent="1" source="G8sGtjTKEq9AV-NC6YxH-1" target="G8sGtjTKEq9AV-NC6YxH-4">
          <mxGeometry relative="1" as="geometry" />
        </mxCell>
        <mxCell id="G8sGtjTKEq9AV-NC6YxH-1" value="&lt;font style=&quot;font-size: 18px;&quot;&gt;Satoria Group&lt;/font&gt;" style="rounded=0;whiteSpace=wrap;html=1;" vertex="1" parent="1">
          <mxGeometry x="380" y="50" width="120" height="60" as="geometry" />
        </mxCell>
        <mxCell id="G8sGtjTKEq9AV-NC6YxH-13" value="" style="edgeStyle=orthogonalEdgeStyle;rounded=0;orthogonalLoop=1;jettySize=auto;html=1;" edge="1" parent="1" source="G8sGtjTKEq9AV-NC6YxH-2" target="G8sGtjTKEq9AV-NC6YxH-12">
          <mxGeometry relative="1" as="geometry">
            <Array as="points">
              <mxPoint x="230" y="270" />
              <mxPoint x="80" y="270" />
            </Array>
          </mxGeometry>
        </mxCell>
        <mxCell id="G8sGtjTKEq9AV-NC6YxH-15" value="" style="edgeStyle=orthogonalEdgeStyle;rounded=0;orthogonalLoop=1;jettySize=auto;html=1;" edge="1" parent="1" source="G8sGtjTKEq9AV-NC6YxH-2" target="G8sGtjTKEq9AV-NC6YxH-14">
          <mxGeometry relative="1" as="geometry" />
        </mxCell>
        <mxCell id="G8sGtjTKEq9AV-NC6YxH-2" value="&lt;font style=&quot;font-size: 18px;&quot;&gt;SAI&lt;/font&gt;" style="whiteSpace=wrap;html=1;rounded=0;" vertex="1" parent="1">
          <mxGeometry x="170" y="180" width="120" height="60" as="geometry" />
        </mxCell>
        <mxCell id="G8sGtjTKEq9AV-NC6YxH-4" value="&lt;font style=&quot;font-size: 18px;&quot;&gt;SAG&lt;/font&gt;" style="rounded=0;whiteSpace=wrap;html=1;" vertex="1" parent="1">
          <mxGeometry x="380" y="180" width="120" height="60" as="geometry" />
        </mxCell>
        <mxCell id="G8sGtjTKEq9AV-NC6YxH-8" value="&lt;font style=&quot;font-size: 18px;&quot;&gt;SDL&lt;/font&gt;" style="rounded=0;whiteSpace=wrap;html=1;" vertex="1" parent="1">
          <mxGeometry x="590" y="180" width="120" height="60" as="geometry" />
        </mxCell>
        <mxCell id="G8sGtjTKEq9AV-NC6YxH-9" value="&lt;font style=&quot;font-size: 18px;&quot;&gt;Konjac&lt;/font&gt;" style="rounded=0;whiteSpace=wrap;html=1;" vertex="1" parent="1">
          <mxGeometry x="800" y="180" width="120" height="60" as="geometry" />
        </mxCell>
        <mxCell id="G8sGtjTKEq9AV-NC6YxH-10" value="" style="endArrow=classic;html=1;rounded=0;exitX=0.5;exitY=1;exitDx=0;exitDy=0;entryX=0.5;entryY=0;entryDx=0;entryDy=0;" edge="1" parent="1" source="G8sGtjTKEq9AV-NC6YxH-1" target="G8sGtjTKEq9AV-NC6YxH-8">
          <mxGeometry width="50" height="50" relative="1" as="geometry">
            <mxPoint x="540" y="140" as="sourcePoint" />
            <mxPoint x="590" y="90" as="targetPoint" />
            <Array as="points">
              <mxPoint x="440" y="140" />
              <mxPoint x="650" y="140" />
            </Array>
          </mxGeometry>
        </mxCell>
        <mxCell id="G8sGtjTKEq9AV-NC6YxH-11" value="" style="endArrow=classic;html=1;rounded=0;exitX=0.5;exitY=1;exitDx=0;exitDy=0;entryX=0.5;entryY=0;entryDx=0;entryDy=0;" edge="1" parent="1" source="G8sGtjTKEq9AV-NC6YxH-1" target="G8sGtjTKEq9AV-NC6YxH-9">
          <mxGeometry width="50" height="50" relative="1" as="geometry">
            <mxPoint x="580" y="120" as="sourcePoint" />
            <mxPoint x="630" y="70" as="targetPoint" />
            <Array as="points">
              <mxPoint x="440" y="140" />
              <mxPoint x="860" y="140" />
            </Array>
          </mxGeometry>
        </mxCell>
        <mxCell id="G8sGtjTKEq9AV-NC6YxH-12" value="&lt;font style=&quot;font-size: 18px;&quot;&gt;LINE1&lt;/font&gt;" style="whiteSpace=wrap;html=1;rounded=0;" vertex="1" parent="1">
          <mxGeometry x="20" y="320" width="120" height="60" as="geometry" />
        </mxCell>
        <mxCell id="G8sGtjTKEq9AV-NC6YxH-19" value="" style="edgeStyle=orthogonalEdgeStyle;rounded=0;orthogonalLoop=1;jettySize=auto;html=1;" edge="1" parent="1" source="G8sGtjTKEq9AV-NC6YxH-14" target="G8sGtjTKEq9AV-NC6YxH-18">
          <mxGeometry relative="1" as="geometry" />
        </mxCell>
        <mxCell id="G8sGtjTKEq9AV-NC6YxH-20" value="" style="edgeStyle=orthogonalEdgeStyle;rounded=0;orthogonalLoop=1;jettySize=auto;html=1;" edge="1" parent="1" source="G8sGtjTKEq9AV-NC6YxH-14" target="G8sGtjTKEq9AV-NC6YxH-18">
          <mxGeometry relative="1" as="geometry" />
        </mxCell>
        <mxCell id="G8sGtjTKEq9AV-NC6YxH-14" value="&lt;font style=&quot;font-size: 18px;&quot;&gt;LINE 2&lt;/font&gt;" style="whiteSpace=wrap;html=1;rounded=0;" vertex="1" parent="1">
          <mxGeometry x="170" y="320" width="120" height="60" as="geometry" />
        </mxCell>
        <mxCell id="G8sGtjTKEq9AV-NC6YxH-16" value="&lt;div&gt;&lt;font style=&quot;font-size: 18px;&quot;&gt;LINE 3&lt;/font&gt;&lt;/div&gt;" style="rounded=0;whiteSpace=wrap;html=1;" vertex="1" parent="1">
          <mxGeometry x="320" y="320" width="120" height="60" as="geometry" />
        </mxCell>
        <mxCell id="G8sGtjTKEq9AV-NC6YxH-17" value="" style="endArrow=classic;html=1;rounded=0;exitX=0.5;exitY=1;exitDx=0;exitDy=0;entryX=0.5;entryY=0;entryDx=0;entryDy=0;" edge="1" parent="1" source="G8sGtjTKEq9AV-NC6YxH-2" target="G8sGtjTKEq9AV-NC6YxH-16">
          <mxGeometry width="50" height="50" relative="1" as="geometry">
            <mxPoint x="230" y="250" as="sourcePoint" />
            <mxPoint x="190" y="350" as="targetPoint" />
            <Array as="points">
              <mxPoint x="230" y="270" />
              <mxPoint x="380" y="270" />
            </Array>
          </mxGeometry>
        </mxCell>
        <mxCell id="G8sGtjTKEq9AV-NC6YxH-18" value="&lt;font style=&quot;font-size: 18px;&quot;&gt;Finance&lt;/font&gt;" style="whiteSpace=wrap;html=1;rounded=0;" vertex="1" parent="1">
          <mxGeometry x="170" y="460" width="120" height="60" as="geometry" />
        </mxCell>
        <mxCell id="G8sGtjTKEq9AV-NC6YxH-21" value="&lt;font style=&quot;font-size: 18px;&quot;&gt;Accounting&lt;/font&gt;" style="rounded=0;whiteSpace=wrap;html=1;" vertex="1" parent="1">
          <mxGeometry x="20" y="460" width="120" height="60" as="geometry" />
        </mxCell>
        <mxCell id="G8sGtjTKEq9AV-NC6YxH-23" value="" style="endArrow=classic;html=1;rounded=0;entryX=0.5;entryY=0;entryDx=0;entryDy=0;" edge="1" parent="1" target="G8sGtjTKEq9AV-NC6YxH-21">
          <mxGeometry width="50" height="50" relative="1" as="geometry">
            <mxPoint x="230" y="380" as="sourcePoint" />
            <mxPoint x="160" y="380" as="targetPoint" />
            <Array as="points">
              <mxPoint x="230" y="420" />
              <mxPoint x="80" y="420" />
            </Array>
          </mxGeometry>
        </mxCell>
      </root>
    </mxGraphModel>
  </diagram>
</mxfile>
